<?xml version="1.0" standalone="no"?>
<!DOCTYPE svg PUBLIC "-//W3C//DTD SVG 20010904//EN"
 "http://www.w3.org/TR/2001/REC-SVG-20010904/DTD/svg10.dtd">
<svg version="1.0" xmlns="http://www.w3.org/2000/svg"
 width="256.000000pt" height="256.000000pt" viewBox="0 0 256.000000 256.000000"
 preserveAspectRatio="xMidYMid meet">
<metadata>
Created by potrace 1.11, written by Peter Selinger 2001-2013
</metadata>
<g transform="translate(0.000000,256.000000) scale(0.100000,-0.100000)"
fill="#000000" stroke="none">
<path d="M1043 2435 c-6 -7 -10 -14 -8 -16 1 -2 -3 -10 -11 -17 -10 -9 -14 -9
-14 -1 0 8 -4 8 -15 -1 -11 -9 -15 -9 -15 -1 0 8 -5 9 -19 1 -14 -7 -22 -7
-26 0 -5 8 -11 7 -21 -1 -7 -6 -11 -16 -7 -22 3 -6 1 -7 -5 -3 -7 4 -12 3 -12
-2 0 -5 -9 -12 -20 -15 -11 -3 -20 -1 -20 4 0 6 -7 6 -19 0 -10 -6 -22 -7 -27
-3 -5 4 -2 -1 5 -10 7 -10 11 -19 7 -19 -3 -1 -10 -2 -15 -3 -5 0 -13 -4 -16
-8 -4 -4 -15 -3 -24 2 -12 6 -24 2 -41 -12 -14 -11 -19 -17 -13 -13 8 4 11 1
7 -9 -3 -8 -13 -13 -22 -11 -9 2 -21 4 -27 5 -22 5 -33 -1 -38 -21 -3 -12 -10
-18 -16 -15 -12 8 -33 -28 -23 -39 4 -5 1 -5 -6 -1 -9 5 -23 -3 -41 -23 -15
-17 -31 -28 -34 -24 -4 3 -7 -1 -7 -11 0 -9 -4 -15 -9 -12 -5 3 -12 -1 -15
-10 -3 -8 -10 -12 -16 -9 -5 3 -10 -1 -10 -9 0 -8 -9 -18 -20 -21 -11 -4 -17
-11 -14 -17 5 -7 1 -9 -9 -5 -11 4 -14 2 -10 -9 3 -7 0 -14 -6 -14 -7 0 -24
-12 -38 -27 -14 -16 -19 -19 -12 -8 13 20 13 20 -8 1 -16 -13 -21 -27 -19 -52
1 -18 -1 -31 -6 -28 -4 3 -8 1 -8 -5 0 -6 -7 -7 -17 -4 -11 4 -14 3 -9 -5 4
-7 2 -12 -4 -12 -8 0 -8 -6 0 -20 8 -14 8 -20 0 -20 -6 0 -8 -5 -5 -10 4 -6 3
-10 -2 -9 -4 1 -16 -1 -26 -6 -14 -6 -15 -10 -6 -21 10 -12 8 -13 -6 -8 -15 6
-16 4 -6 -13 9 -18 7 -22 -19 -33 -17 -7 -30 -17 -30 -22 0 -5 4 -7 8 -4 10 6
9 -25 -2 -42 -4 -7 -2 -12 4 -12 7 0 7 -7 -1 -22 -8 -16 -9 -23 -1 -26 6 -2 8
-10 5 -18 -3 -7 -9 -11 -14 -8 -5 3 -9 0 -9 -5 0 -6 -5 -10 -12 -8 -7 1 -13
-12 -15 -31 -2 -24 0 -31 10 -26 9 6 9 4 1 -7 -14 -18 -16 -77 -3 -85 6 -4 3
-14 -8 -27 -10 -11 -13 -17 -7 -14 15 9 27 -20 12 -29 -7 -5 -8 -2 -3 6 5 8 4
11 -3 7 -11 -7 -5 -44 10 -63 5 -8 3 -18 -6 -27 -14 -13 -14 -16 0 -21 13 -5
14 -9 5 -20 -9 -10 -8 -15 4 -20 9 -3 13 -2 10 4 -3 6 1 7 9 4 9 -3 13 -10 10
-15 -3 -5 0 -9 7 -9 8 0 8 -4 -1 -15 -9 -11 -9 -15 -1 -15 7 0 9 -5 5 -12 -11
-17 -12 -88 -2 -82 4 3 8 -3 9 -13 0 -11 3 -13 6 -5 3 9 10 7 24 -9 22 -25 24
-33 7 -23 -7 5 -9 2 -5 -8 3 -9 0 -21 -6 -28 -9 -10 -9 -11 1 -5 8 4 13 2 11
-6 -3 -27 1 -40 11 -34 6 3 10 1 10 -5 0 -6 4 -9 9 -5 5 3 13 0 17 -6 4 -7 3
-9 -3 -6 -6 4 -10 -5 -9 -22 1 -16 6 -29 11 -28 6 1 9 -4 7 -11 -1 -8 2 -11 8
-7 5 3 10 1 10 -5 0 -6 5 -8 11 -4 8 4 9 -1 4 -16 -5 -14 -3 -20 3 -16 6 4 8
-2 4 -16 -3 -14 -2 -19 6 -14 7 4 12 2 12 -4 0 -6 4 -8 10 -5 6 4 7 -1 3 -11
-4 -10 -2 -15 4 -11 5 3 10 0 10 -8 0 -8 -4 -15 -9 -15 -4 0 -8 -4 -8 -10 0
-5 7 -10 15 -10 8 0 19 -8 24 -19 6 -10 22 -22 35 -25 17 -4 23 -11 19 -22 -3
-8 -1 -14 5 -12 6 2 18 -6 27 -17 9 -11 13 -14 9 -6 -5 9 -3 12 4 7 7 -4 12
-17 12 -29 0 -18 2 -19 10 -7 8 13 11 13 22 1 11 -12 10 -13 -2 -6 -9 5 -8 0
4 -14 11 -12 26 -19 33 -17 7 3 13 0 13 -6 0 -7 4 -7 14 1 10 9 19 4 40 -21
15 -18 26 -26 26 -17 0 12 2 12 9 0 8 -12 12 -12 25 -2 13 11 16 11 16 0 0
-11 2 -11 10 1 9 13 10 13 10 0 0 -10 3 -11 8 -4 5 9 10 8 20 -2 7 -7 12 -16
12 -19 -1 -26 1 -35 8 -33 4 2 8 -1 9 -7 4 -16 -7 -45 -18 -45 -5 0 -9 -5 -9
-11 0 -5 5 -7 12 -3 7 5 8 3 4 -5 -5 -7 -14 -10 -22 -7 -8 3 -11 0 -7 -9 3 -8
8 -13 12 -10 4 2 8 -2 8 -9 0 -7 -6 -13 -13 -13 -7 0 -11 4 -8 8 2 4 0 10 -5
13 -4 3 -7 -15 -6 -40 2 -41 -1 -47 -24 -56 l-26 -10 25 -13 c14 -8 19 -14 12
-15 -7 0 -10 -5 -6 -12 4 -7 3 -8 -5 -4 -6 4 -9 11 -7 15 3 4 -1 8 -9 8 -8 0
-11 -5 -8 -11 13 -21 10 -46 -6 -46 -9 0 -12 -3 -6 -8 6 -4 11 -13 13 -21 3
-12 1 -12 -14 0 -16 13 -16 12 -6 -8 9 -16 9 -24 0 -29 -6 -4 -8 -3 -4 4 3 6
2 13 -3 16 -6 4 -8 -6 -6 -23 3 -23 1 -29 -11 -24 -7 3 -14 0 -14 -6 0 -6 4
-11 8 -11 5 0 15 -15 24 -34 16 -32 18 -33 75 -33 41 0 62 5 71 16 10 14 11
14 7 1 -4 -11 2 -16 20 -18 14 -1 25 4 25 11 0 7 3 8 8 2 13 -18 43 -17 58 2
10 12 12 13 9 3 -4 -11 2 -16 20 -18 14 -1 25 4 25 11 0 7 3 8 8 2 13 -18 43
-17 58 2 10 13 13 14 9 2 -4 -10 0 -16 9 -16 8 0 12 5 9 10 -4 7 1 8 13 4 14
-6 13 -2 -6 14 -14 11 -20 18 -15 16 6 -3 17 -2 24 2 10 7 11 13 2 30 -7 13
-17 19 -24 14 -18 -11 -38 -13 -31 -2 3 5 10 7 15 4 5 -4 9 -2 9 3 0 6 -7 13
-16 16 -10 4 -13 2 -8 -6 5 -8 2 -9 -9 -5 -9 3 -19 1 -23 -5 -4 -6 -3 -8 3 -5
5 3 10 -1 10 -9 0 -10 -4 -11 -11 -4 -14 14 -29 13 -20 -2 4 -7 3 -8 -5 -4 -9
6 -9 11 -1 21 8 10 8 15 -1 21 -8 5 -9 3 -5 -5 5 -8 3 -12 -5 -10 -29 3 -38
-2 -33 -19 4 -10 2 -13 -3 -7 -12 15 -35 18 -43 5 -5 -8 -9 -6 -13 5 -4 9 -3
13 3 10 6 -3 10 -1 10 5 0 7 -7 9 -16 6 -9 -3 -17 -6 -20 -6 -2 0 0 -8 3 -17
6 -15 5 -16 -9 -3 -9 8 -14 17 -13 20 2 3 -5 6 -15 6 -12 0 -16 -4 -10 -11 5
-6 0 -10 -14 -10 -13 0 -23 5 -24 10 0 6 -3 20 -6 32 -2 13 -1 25 4 28 5 3 7
14 5 24 -2 10 3 18 11 18 10 0 11 -4 3 -14 -6 -7 -8 -13 -4 -13 4 0 2 -8 -6
-17 -12 -17 -12 -17 6 -1 21 20 28 69 11 80 -8 5 -7 11 3 20 10 9 12 10 7 1
-5 -9 -2 -11 9 -7 9 4 13 9 11 12 -3 3 0 12 7 21 10 14 10 14 -5 3 -12 -10
-18 -10 -24 -1 -5 8 -3 9 5 4 9 -5 11 1 8 25 -5 26 -3 29 9 19 17 -14 19 -23
2 -13 -7 4 -8 3 -4 -5 4 -6 12 -9 17 -5 5 3 7 9 4 14 -3 4 3 11 13 15 15 6 14
8 -8 21 -21 13 -21 15 -5 11 15 -3 21 1 22 15 2 17 0 18 -15 6 -15 -12 -16
-11 -4 4 8 10 18 16 24 15 15 -3 20 45 6 56 -10 6 -9 7 3 4 9 -3 22 0 28 6 13
13 43 19 35 6 -3 -5 6 -5 20 1 18 7 26 6 26 -1 0 -7 6 -6 17 2 14 12 15 12 9
1 -7 -11 -4 -12 13 -3 16 9 21 9 21 -1 0 -9 3 -9 10 2 5 8 10 10 10 4 0 -23
45 -7 59 20 10 22 15 25 22 15 7 -12 9 -12 9 0 0 10 3 11 14 2 11 -9 15 -9 19
1 4 10 8 10 16 -2 10 -13 11 -13 11 0 0 12 2 12 9 1 6 -9 11 -10 15 -2 4 6 12
9 17 6 5 -4 19 -8 31 -10 12 -3 26 -10 32 -16 8 -9 7 -10 -4 -4 -12 6 -12 5
-3 -5 6 -7 9 -20 6 -29 -4 -13 -3 -13 5 -2 8 10 14 11 28 1 17 -10 17 -11 1
-6 -12 4 -16 2 -11 -5 4 -6 0 -15 -7 -20 -12 -7 -12 -9 0 -9 11 0 11 -3 0 -17
-13 -16 -12 -17 3 -4 10 7 16 17 13 21 -3 5 -2 11 3 14 13 8 11 -27 -2 -43 -9
-12 -7 -13 9 -8 19 7 19 6 2 -7 -12 -9 -14 -16 -8 -21 6 -3 11 -1 11 4 0 6 5
11 11 11 6 0 8 -9 4 -21 -5 -13 -3 -19 3 -15 5 3 16 -2 23 -12 12 -15 12 -16
-2 -4 -23 18 -34 -11 -11 -30 13 -11 15 -11 7 2 -7 13 -6 13 7 2 8 -6 14 -23
13 -36 -2 -13 1 -29 5 -37 5 -7 5 -20 0 -29 -6 -12 -5 -17 5 -17 8 0 11 5 8
10 -3 6 -1 7 5 3 6 -4 9 -13 6 -21 -4 -8 -11 -12 -17 -8 -6 4 -7 1 -3 -6 6 -9
13 -8 29 6 l21 18 -18 -28 c-10 -16 -15 -31 -12 -35 3 -3 6 0 6 6 0 7 8 12 18
11 10 0 12 -3 5 -6 -7 -2 -13 -9 -13 -14 0 -6 5 -7 12 -3 7 5 8 3 2 -7 -12
-20 -14 -38 -3 -45 5 -3 7 -9 4 -14 -3 -4 5 -6 17 -2 11 3 19 1 16 -4 -4 -5
12 -9 33 -9 25 0 38 4 35 12 -5 12 18 12 30 0 4 -4 13 -2 21 4 7 6 22 9 33 6
11 -3 18 -2 16 2 -2 3 3 15 11 26 12 15 14 16 10 3 -4 -12 -1 -16 13 -15 13 1
16 5 10 12 -7 8 -5 12 5 12 8 0 15 -4 15 -9 0 -4 6 -7 13 -6 6 2 11 -3 9 -11
-3 -12 0 -12 12 -1 19 15 21 24 4 14 -10 -5 -10 -3 0 7 11 12 14 12 22 -1 7
-10 10 -11 10 -2 0 6 9 12 21 12 13 0 18 4 13 13 -4 6 -4 9 1 5 4 -4 15 -2 23
5 13 9 14 9 8 0 -4 -8 -1 -13 9 -13 9 0 14 4 10 9 -3 5 5 13 17 17 20 6 20 8
5 19 -9 7 -17 16 -17 20 0 4 6 2 14 -4 9 -7 17 -8 20 -3 6 10 -22 27 -37 23
-5 -1 -6 3 -2 9 5 8 11 8 20 0 10 -8 15 -8 21 1 4 8 3 9 -4 5 -7 -4 -12 -3
-12 2 0 5 -9 12 -20 15 -10 3 -19 2 -18 -2 2 -18 -4 -30 -18 -35 -13 -5 -14
-4 -5 7 9 12 6 13 -15 9 -19 -3 -23 -7 -12 -14 9 -6 1 -8 -23 -6 -26 3 -35 0
-32 -8 3 -8 -3 -11 -14 -9 -10 2 -22 4 -26 4 -5 1 -5 6 -1 12 4 8 9 7 15 -2 5
-8 9 -9 9 -3 0 16 -10 23 -26 17 -8 -3 -14 -13 -14 -22 0 -14 -2 -14 -10 -1
-8 13 -10 13 -10 -2 0 -9 -5 -20 -11 -23 -6 -4 -9 0 -7 8 2 9 -1 15 -7 14 -5
-1 -10 -7 -9 -12 1 -6 -12 -12 -28 -13 -21 -2 -28 1 -23 10 4 7 0 6 -7 -4 -13
-15 -16 -15 -38 2 -21 16 -22 20 -10 36 14 16 13 16 -8 5 -12 -7 -20 -16 -18
-20 3 -4 -1 -8 -9 -8 -8 0 -11 5 -7 11 10 16 10 86 0 80 -5 -3 -5 -10 -2 -16
4 -7 2 -8 -5 -4 -6 4 -9 11 -6 16 3 4 -1 10 -9 13 -13 5 -14 46 -1 66 10 18
-7 12 -22 -6 -13 -16 -13 -16 -3 5 8 17 8 22 -2 22 -9 0 -9 3 2 10 8 5 10 10
4 10 -16 0 -25 38 -10 44 6 2 3 5 -6 5 -10 1 -18 -3 -18 -9 0 -5 -5 -10 -11
-10 -8 0 -8 4 0 13 7 10 7 17 0 24 -8 8 -8 17 1 32 13 26 5 42 -18 34 -9 -3
-14 -3 -10 2 4 4 3 17 -3 28 -7 12 -7 17 -1 13 5 -3 12 1 16 9 3 8 1 17 -4 20
-6 4 -10 16 -10 28 0 17 2 19 9 8 8 -12 12 -12 25 -2 8 7 19 11 23 8 9 -5 28
12 31 28 1 6 7 10 12 10 6 0 25 17 43 37 18 21 44 40 60 42 18 3 25 1 21 -6
-5 -7 -2 -9 9 -5 16 6 32 -18 21 -34 -3 -5 6 -5 20 1 17 6 26 6 26 -1 0 -6 8
-6 21 2 12 6 19 7 16 2 -3 -5 4 -15 16 -23 21 -12 21 -12 7 5 -14 17 -14 18 8
6 22 -12 23 -11 13 8 -10 17 -9 20 4 15 10 -4 15 0 15 12 0 9 3 15 6 11 8 -7
44 24 38 34 -2 4 6 5 18 1 17 -4 20 -2 15 12 -4 9 -3 15 2 11 13 -7 43 24 35
37 -4 7 -2 8 4 4 7 -4 12 -2 12 3 0 6 7 11 16 11 9 0 12 5 8 12 -5 8 -2 9 11
4 16 -6 16 -4 4 11 -8 9 -9 14 -3 10 7 -4 15 0 18 9 4 10 12 14 22 10 14 -5
14 -4 5 7 -9 11 -8 17 2 26 8 6 18 7 23 3 4 -4 2 1 -6 11 -7 10 -9 17 -4 16
27 -5 36 1 24 16 -11 13 -10 14 6 8 17 -6 17 -5 5 10 -11 14 -11 18 3 23 10 4
15 13 12 20 -3 8 0 13 7 11 7 -1 11 6 11 16 -1 9 5 17 13 17 8 0 11 5 8 10 -4
6 -10 8 -14 6 -4 -3 -8 1 -8 9 0 8 4 12 9 9 4 -3 8 6 8 20 0 14 5 26 11 26 5
0 7 -4 4 -10 -3 -6 1 -7 10 -3 13 5 14 7 3 14 -12 8 -4 13 15 10 5 -1 6 3 2 9
-3 6 -11 7 -17 4 -6 -4 -6 1 1 14 14 27 14 35 -1 27 -7 -4 -4 1 6 9 13 10 15
16 7 16 -11 0 -11 3 0 17 10 11 10 14 2 9 -7 -4 -13 -3 -13 1 0 5 6 15 13 22
8 10 8 12 0 7 -8 -4 -11 1 -10 14 1 11 6 20 12 20 5 0 5 4 -2 8 -13 8 -12 29
1 51 6 10 5 12 -2 7 -16 -10 -15 7 1 23 8 10 8 12 0 7 -8 -4 -11 1 -10 14 1
11 6 20 12 20 5 0 -6 8 -25 18 -24 11 -35 24 -36 39 0 12 3 20 8 17 4 -3 8 -1
8 5 0 5 -6 12 -12 14 -10 4 -10 6 0 6 6 1 12 6 12 12 0 5 -4 8 -9 5 -4 -3 -7
6 -5 21 1 14 -4 32 -12 40 -8 8 -14 11 -14 6 0 -13 -20 21 -20 35 0 8 5 10 13
6 9 -6 9 -5 0 8 -7 8 -9 18 -5 22 4 5 0 7 -8 6 -29 -4 -39 0 -34 15 4 8 1 15
-6 15 -10 0 -10 3 0 15 13 15 5 39 -11 30 -10 -7 -39 18 -39 34 0 10 -14 15
-33 12 -5 -1 -8 9 -7 21 3 38 0 62 -6 55 -9 -8 -45 33 -39 43 3 4 -3 14 -12
21 -12 10 -14 10 -9 2 4 -7 2 -13 -3 -13 -6 0 -11 5 -11 11 0 5 -4 7 -10 4 -6
-4 -7 1 -3 11 4 11 2 15 -4 11 -5 -4 -31 14 -57 38 -25 25 -46 40 -46 34 0 -8
-4 -8 -14 0 -11 9 -15 9 -19 -1 -4 -11 -6 -10 -6 0 -1 7 -5 10 -11 7 -5 -3
-10 1 -10 9 0 9 -9 16 -21 16 -11 0 -17 5 -14 10 3 6 -2 10 -11 10 -10 0 -14
3 -11 7 4 3 2 12 -4 20 -9 10 -15 10 -25 2 -11 -9 -14 -8 -14 1 0 9 -4 9 -17
-1 -15 -12 -16 -12 -8 1 7 12 6 13 -6 4 -19 -14 -32 -12 -52 8 -12 12 -13 18
-5 20 7 3 2 7 -10 10 -15 4 -20 3 -15 -5 4 -7 0 -7 -9 1 -12 10 -18 10 -23 1
-6 -8 -10 -7 -16 2 -7 12 -9 12 -9 0 0 -10 -3 -11 -14 -2 -11 9 -15 9 -19 -1
-3 -8 -9 -2 -15 14 -6 14 -16 29 -23 34 -8 5 -10 3 -4 -7 8 -12 6 -12 -8 0
-14 11 -17 11 -17 0 0 -12 -2 -12 -9 0 -6 9 -10 10 -16 2 -5 -9 -10 -9 -21 0
-11 9 -14 9 -14 -1 0 -10 -3 -10 -15 0 -12 10 -15 10 -15 0 0 -9 -4 -9 -17 1
-15 12 -16 12 -8 -1 8 -13 7 -13 -8 -1 -13 10 -17 10 -17 1 0 -10 -3 -10 -15
0 -12 10 -15 10 -15 0 0 -9 -4 -9 -17 1 -15 12 -16 12 -8 -1 8 -13 7 -13 -8
-1 -13 10 -17 10 -17 1 0 -8 -4 -9 -12 -4 -16 11 -39 11 -55 1 -8 -5 -13 -3
-13 5 0 8 -3 9 -8 3 -8 -12 -19 -12 -44 -1 -15 7 -15 9 0 25 11 11 20 13 24 7
5 -7 8 -6 8 3 0 9 4 10 13 4 15 -12 55 7 50 24 -2 6 1 15 8 19 8 4 9 3 5 -4
-5 -8 -2 -10 8 -6 9 3 14 10 11 15 -3 4 4 13 15 19 11 6 18 15 15 21 -4 5 -2
8 4 7 5 -2 17 6 26 17 9 11 14 14 10 8 -4 -9 -1 -11 10 -7 13 5 13 9 3 22 -10
12 -10 14 0 8 6 -4 12 -2 12 3 0 6 -8 12 -17 12 -10 1 -25 2 -33 3 -8 0 -18
-3 -22 -9 -5 -6 -8 -5 -8 3 0 6 -5 12 -11 12 -5 0 -7 -6 -3 -12 6 -10 5 -10
-7 -2 -11 9 -17 9 -26 -1z m727 -395 c0 -5 -2 -10 -4 -10 -3 0 -8 5 -11 10 -3
6 -1 10 4 10 6 0 11 -4 11 -10z m-354 -1488 c-4 -3 -14 2 -24 12 -16 18 -16
18 6 6 13 -6 21 -14 18 -18z m15 -85 c-10 -9 -11 -8 -5 6 3 10 9 15 12 12 3
-3 0 -11 -7 -18z m-554 -41 c0 -8 -6 -12 -15 -9 -11 5 -11 7 0 14 7 5 13 9 14
9 0 0 1 -6 1 -14z m573 -186 c0 -5 -5 -10 -11 -10 -5 0 -7 5 -4 10 3 6 8 10
11 10 2 0 4 -4 4 -10z m130 -116 c0 -8 -19 -13 -24 -6 -3 5 1 9 9 9 8 0 15 -2
15 -3z m-496 -49 c3 -8 1 -15 -4 -15 -6 0 -10 7 -10 15 0 8 2 15 4 15 2 0 6
-7 10 -15z m411 -5 c-3 -4 0 -11 5 -13 6 -3 5 -4 -1 -3 -7 1 -13 10 -15 19 -1
9 2 15 7 11 5 -3 7 -9 4 -14z m-751 -50 c-6 -6 -10 -3 -10 10 0 13 4 16 10 10
7 -7 7 -13 0 -20z m102 4 c1 -9 0 -13 -4 -10 -3 4 -7 14 -8 22 -1 9 0 13 4 10
3 -4 7 -14 8 -22z m121 1 c0 -8 -4 -12 -9 -9 -5 3 -6 10 -3 15 9 13 12 11 12
-6z m-177 -5 c0 -5 -2 -10 -4 -10 -3 0 -8 5 -11 10 -3 6 -1 10 4 10 6 0 11 -4
11 -10z m120 0 c0 -5 -2 -10 -4 -10 -3 0 -8 5 -11 10 -3 6 -1 10 4 10 6 0 11
-4 11 -10z m120 0 c0 -5 -2 -10 -4 -10 -3 0 -8 5 -11 10 -3 6 -1 10 4 10 6 0
11 -4 11 -10z"/>
<path d="M1445 450 c-8 -13 3 -30 18 -30 7 0 6 4 -3 10 -13 9 -13 11 0 20 9 6
10 10 3 10 -6 0 -15 -4 -18 -10z"/>
<path d="M764 442 c3 -5 0 -13 -6 -15 -9 -4 -10 -6 -1 -6 17 -1 25 16 12 25
-7 4 -9 3 -5 -4z"/>
<path d="M1506 302 c-3 -5 1 -9 9 -9 8 0 12 4 9 9 -3 4 -7 8 -9 8 -2 0 -6 -4
-9 -8z"/>
<path d="M707 289 c7 -7 15 -10 18 -7 3 3 -2 9 -12 12 -14 6 -15 5 -6 -5z"/>
<path d="M1505 270 c-4 -6 3 -10 14 -10 25 0 27 6 6 13 -8 4 -17 2 -20 -3z"/>
<path d="M1397 249 c4 -13 8 -18 11 -10 2 7 -1 18 -6 23 -8 8 -9 4 -5 -13z"/>
<path d="M1955 149 c-4 -6 -5 -12 -2 -15 2 -3 7 2 10 11 7 17 1 20 -8 4z"/>
<path d="M900 111 c0 -6 4 -13 10 -16 6 -3 7 1 4 9 -7 18 -14 21 -14 7z"/>
<path d="M1876 78 c3 -5 10 -6 15 -3 13 9 11 12 -6 12 -8 0 -12 -4 -9 -9z"/>
<path d="M633 45 c0 -8 4 -15 9 -15 4 0 8 4 8 9 0 6 -4 12 -8 15 -5 3 -9 -1
-9 -9z"/>
<path d="M1532 15 c3 -3 16 -8 28 -10 12 -2 20 -1 16 2 -4 4 -16 8 -28 10 -12
2 -19 1 -16 -2z"/>
</g>
</svg>
